<?xml version="1.0" encoding="UTF-8"?>
<svg width="220px" height="28px" viewBox="0 0 220 28" version="1.1" xmlns="http://www.w3.org/2000/svg" xmlns:xlink="http://www.w3.org/1999/xlink">
    <!-- Generator: Sketch 59.1 (86144) - https://sketch.com -->
    <title>Untitled 24</title>
    <desc>Created with Sketch.</desc>
    <g id="Page-1" stroke="none" stroke-width="1" fill="none" fill-rule="evenodd">
        <text id="hypersona" font-family="OverpassMono-Bold, Overpass Mono" font-size="30" font-weight="bold" fill="#FFFFFF">
            <tspan x="56" y="22">hypersona</tspan>
        </text>
        <path d="M20.5227703,6.43120349 C20.5227703,6.43120349 8.31390882,3.31383344 0.33119172,6.28850698 C-0.12879678,7.47947406 0.02453272,9.86140822 0.02453272,9.86140822 C3.35944935,9.93275648 1.39970667,15.7503837 3.26840996,19.1805884 C4.53030873,21.032329 7.13319515,21.5258866 9.93861705,21.7600186 C12.4381141,21.968619 15.1042645,22.1263331 17.0345241,20.4429038 C21.1312967,16.8700025 19.7622026,9.86140822 22.5104051,9.86140822 C22.6447821,9.86140822 23.4278218,9.86140822 23.5538258,9.86140822 C26.3020283,9.86140822 24.8687033,16.8700025 28.9654759,20.4429038 C31.0769783,22.2822483 33.8006375,22.1470685 36.4950997,21.7600186 C39.0345928,21.3952295 41.5738205,20.8821901 42.73159,19.1805884 C44.5955018,15.7448954 42.6405507,9.92726815 45.9754673,9.86140822 C45.9754673,9.86140822 46.1287968,7.47947406 45.6688083,6.28850698 C37.6860912,3.30834511 25.4772297,6.43120349 25.4772297,6.43120349 C23.8241461,6.43120349 22.1758539,6.43120349 20.5227703,6.43120349 Z" id="Path" fill="#FFFFFF"></path>
    </g>
</svg>